<svg width="920" height="509" viewBox="0 0 920 509" fill="none" xmlns="http://www.w3.org/2000/svg">
<rect width="920" height="509" rx="23" fill="white"/>
<mask id="mask0_19_3" style="mask-type:alpha" maskUnits="userSpaceOnUse" x="0" y="0" width="920" height="509">
<rect width="920" height="509" rx="23" fill="white"/>
</mask>
<g mask="url(#mask0_19_3)">
<path opacity="0.0991676" d="M-108.245 642.353L-557.256 376.729C-571.551 368.683 -583.804 355.501 -569.875 346.852L-119.267 86.8897C-112.513 82.6963 -102.249 79.9444 -95.3637 83.9543L375.901 357.781C390.197 366.089 392.762 389.231 378.52 397.618L-49.075 641.933C-67.3366 652.537 -89.8353 652.697 -108.245 642.353Z" fill="#6862E6"/>
<path opacity="0.0991676" d="M-108.245 266.353L-557.256 0.729492C-571.551 -7.31652 -583.804 -20.4994 -569.875 -29.1482L-119.267 -289.11C-112.513 -293.304 -102.249 -296.056 -95.3637 -292.046L375.901 -18.2192C390.197 -9.91114 392.762 13.231 378.52 21.6177L-49.075 265.933C-67.3366 276.537 -89.8353 276.697 -108.245 266.353Z" stroke="#1E1F36"/>
<path opacity="0.0991676" d="M-108.245 341.353L-557.256 75.7295C-571.551 67.6835 -583.804 54.5006 -569.875 45.8518L-119.267 -214.11C-112.513 -218.304 -102.249 -221.056 -95.3637 -217.046L375.901 56.7808C390.197 65.0889 392.762 88.231 378.52 96.6177L-49.075 340.933C-67.3366 351.537 -89.8353 351.697 -108.245 341.353Z" stroke="#1E1F36"/>
<path d="M145.018 425.203L-74.6873 295.211C-81.682 291.273 -87.6775 284.822 -80.8621 280.589L139.625 153.367C142.93 151.315 147.952 149.968 151.321 151.93L381.916 285.937C388.91 290.003 390.166 301.329 383.197 305.433L173.971 424.998C165.035 430.187 154.026 430.265 145.018 425.203Z" fill="#5B36A0"/>
<path d="M145.018 419.203L-74.6873 289.211C-81.682 285.273 -87.6775 278.822 -80.8621 274.589L139.625 147.367C142.93 145.315 147.952 143.968 151.321 145.93L381.916 279.937C388.91 284.003 390.166 295.329 383.197 299.433L173.971 418.998C165.035 424.187 154.026 424.265 145.018 419.203Z" fill="#6862E6"/>
<g style="mix-blend-mode:multiply" opacity="0.25">
<path d="M163.133 247.693L119.781 272.46C119.781 272.46 186.564 313.26 200.22 319.006L225.188 283.093" fill="url(#paint0_linear_19_3)"/>
</g>
<g style="mix-blend-mode:multiply" opacity="0.25">
<path d="M148.157 366.513L104.792 341.798L61.4276 366.565C61.4276 366.565 84.013 380.366 105.599 393.038C119.307 383.328 133.027 373.516 148.157 366.513Z" fill="url(#paint1_linear_19_3)"/>
</g>
<g style="mix-blend-mode:multiply" opacity="0.46">
<path d="M54.7275 213.883L27.2227 229.595C27.2227 229.595 29.5543 243.999 43.2106 249.745L79.2218 226.658" fill="url(#paint2_linear_19_3)"/>
</g>
<ellipse cx="68.1917" cy="217.898" rx="16.59" ry="11.6974" fill="#68E1FD"/>
<ellipse cx="68.1789" cy="210.997" rx="12.4265" ry="5.09196" fill="#974C26"/>
<path fill-rule="evenodd" clip-rule="evenodd" d="M67.4743 195.619C67.6536 197.915 67.7305 200.21 67.7305 202.506C67.7177 205.379 67.5768 208.252 67.2693 211.113C66.2829 209.74 65.3092 208.304 64.2844 206.688C62.9649 204.623 61.735 202.506 60.6077 200.339C59.5596 198.411 58.6643 196.404 57.9302 194.336C57.1138 192.09 56.4588 189.788 55.9702 187.448C55.8421 186.884 55.7268 186.217 55.6243 185.602V185.383V184.845C55.5218 183.639 55.4193 182.357 55.4193 181.074C55.3624 176.712 56.2041 172.385 57.8918 168.363C62.3772 174.876 65.4014 182.284 66.7569 190.078C66.8423 190.54 66.9234 191.006 67.0003 191.476C67.0003 191.386 67.1796 192.322 67.1796 192.669L67.3077 193.836C67.3675 194.426 67.423 195.02 67.4743 195.619ZM61.21 176.687C61.2099 176.687 61.2098 176.687 61.2098 176.687H61.197C61.2013 176.687 61.2056 176.687 61.21 176.687ZM61.21 176.687C61.5252 176.669 61.8412 176.704 62.145 176.79C61.8375 176.448 61.5258 176.114 61.2098 175.79C61.2755 176.085 61.2756 176.391 61.21 176.687Z" fill="#999A1C"/>
<path fill-rule="evenodd" clip-rule="evenodd" d="M75.4939 198.338C74.4049 200.428 73.2776 202.34 71.9965 204.276C70.4464 206.7 68.7297 209.035 67.0259 211.305C66.9106 209.625 66.9106 207.88 66.9106 205.969C66.9106 203.52 67.0131 201.083 67.2437 198.646C67.4018 196.456 67.7316 194.281 68.2301 192.143C68.7534 189.809 69.4427 187.516 70.2927 185.281C70.5233 184.691 70.7667 184.114 71.01 183.537L71.0101 183.537L71.0741 183.331L71.3303 182.857C71.9068 181.741 72.5217 180.638 73.1879 179.573C75.5015 175.868 78.5544 172.68 82.1555 170.21C82.4155 178.124 80.9602 186 77.8895 193.297C77.7101 193.716 77.5265 194.144 77.3386 194.58L76.839 195.683L76.3137 196.747C76.049 197.278 75.7757 197.808 75.4939 198.338ZM80.8872 178.239C80.8009 178.529 80.6523 178.796 80.4516 179.022C80.7015 179.154 80.9304 179.322 81.1306 179.522C81.0623 179.112 80.9812 178.684 80.8872 178.239Z" fill="#999A1C"/>
<path fill-rule="evenodd" clip-rule="evenodd" d="M75.7501 207.919C74.4775 208.663 73.1964 209.355 71.9068 209.997C70.2926 210.805 68.6401 211.523 66.9875 212.216C67.4743 211.279 68.0251 210.317 68.6401 209.291C69.4471 208.009 70.2926 206.726 71.2022 205.443C71.9927 204.312 72.8708 203.244 73.8284 202.25C74.8648 201.158 75.978 200.142 77.1592 199.21L78.1072 198.505L78.2097 198.415L78.5044 198.235C79.1833 197.825 79.8623 197.427 80.5669 197.068C83.0039 195.814 85.6728 195.076 88.4071 194.9C85.9972 199.25 82.6758 203.026 78.6709 205.969L77.9535 206.495L77.3386 206.931L76.7109 207.329L75.7501 207.919ZM85.1019 198.812C84.9626 198.941 84.7963 199.038 84.6151 199.095V199.107C84.7006 199.268 84.7611 199.441 84.7945 199.62C84.9055 199.355 85.008 199.086 85.1019 198.812Z" fill="#999A1C"/>
<path fill-rule="evenodd" clip-rule="evenodd" d="M67.4743 195.619C67.6536 197.915 67.7305 200.21 67.7305 202.506C67.7177 205.379 67.5768 208.252 67.2693 211.113C66.2829 209.74 65.3092 208.304 64.2844 206.688C62.9649 204.623 61.735 202.506 60.6077 200.339C59.5596 198.411 58.6643 196.404 57.9302 194.336C57.1138 192.09 56.4588 189.788 55.9702 187.448C55.8421 186.884 55.7268 186.217 55.6243 185.602V185.383V184.845C55.5218 183.639 55.4193 182.357 55.4193 181.074C55.3624 176.712 56.2041 172.385 57.8918 168.363C62.3772 174.876 65.4014 182.284 66.7569 190.078C66.8423 190.54 66.9234 191.006 67.0003 191.476C67.0003 191.386 67.1796 192.322 67.1796 192.669L67.3077 193.836C67.3675 194.426 67.423 195.02 67.4743 195.619ZM61.21 176.687C61.2099 176.687 61.2098 176.687 61.2098 176.687H61.197C61.2013 176.687 61.2056 176.687 61.21 176.687ZM61.21 176.687C61.5252 176.669 61.8412 176.704 62.145 176.79C61.8375 176.448 61.5258 176.114 61.2098 175.79C61.2755 176.085 61.2756 176.391 61.21 176.687Z" fill="#999A1C"/>
<path fill-rule="evenodd" clip-rule="evenodd" d="M75.4939 198.338C74.4049 200.428 73.2776 202.34 71.9965 204.276C70.4464 206.7 68.7297 209.035 67.0259 211.305C66.9106 209.625 66.9106 207.88 66.9106 205.969C66.9106 203.52 67.0131 201.083 67.2437 198.646C67.4018 196.456 67.7316 194.281 68.2301 192.143C68.7534 189.809 69.4427 187.516 70.2927 185.281C70.5233 184.691 70.7667 184.114 71.01 183.537L71.0101 183.537L71.0741 183.331L71.3303 182.857C71.9068 181.741 72.5217 180.638 73.1879 179.573C75.5015 175.868 78.5544 172.68 82.1555 170.21C82.4155 178.124 80.9602 186 77.8895 193.297C77.7101 193.716 77.5265 194.144 77.3386 194.58L76.839 195.683L76.3137 196.747C76.049 197.278 75.7757 197.808 75.4939 198.338ZM80.8872 178.239C80.8009 178.529 80.6523 178.796 80.4516 179.022C80.7015 179.154 80.9304 179.322 81.1306 179.522C81.0623 179.112 80.9812 178.684 80.8872 178.239Z" fill="#999A1C"/>
<path fill-rule="evenodd" clip-rule="evenodd" d="M75.7501 207.919C74.4775 208.663 73.1964 209.355 71.9068 209.997C70.2926 210.805 68.6401 211.523 66.9875 212.216C67.4743 211.279 68.0251 210.317 68.6401 209.291C69.4471 208.009 70.2926 206.726 71.2022 205.443C71.9927 204.312 72.8708 203.244 73.8284 202.25C74.8648 201.158 75.978 200.142 77.1592 199.21L78.1072 198.505L78.2097 198.415L78.5044 198.235C79.1833 197.825 79.8623 197.427 80.5669 197.068C83.0039 195.814 85.6728 195.076 88.4071 194.9C85.9972 199.25 82.6758 203.026 78.6709 205.969L77.9535 206.495L77.3386 206.931L76.7109 207.329L75.7501 207.919ZM85.1019 198.812C84.9626 198.941 84.7963 199.038 84.6151 199.095V199.107C84.7006 199.268 84.7611 199.441 84.7945 199.62C84.9055 199.355 85.008 199.086 85.1019 198.812Z" fill="#999A1C"/>
<path d="M180.35 238.022L156.356 249.565C154.513 250.452 153.311 252.285 153.231 254.33C153.15 256.375 154.205 258.297 155.971 259.326L212.839 292.545C215.392 294.04 218.669 293.254 220.269 290.763L234.092 269.24" fill="#A1482D"/>
<path d="M310.854 182.344L119.525 71.9624C116.853 70.4244 113.566 70.4282 110.898 71.9726C108.23 73.5169 106.587 76.3676 106.586 79.4528V194.285C106.586 196.851 107.953 199.222 110.173 200.505L314.146 318.39C315.578 319.221 317.345 319.222 318.778 318.393C320.211 317.565 321.093 316.032 321.09 314.375V200.018C321.084 192.717 317.18 185.976 310.854 182.344Z" fill="#F47B56"/>
<path d="M119.537 80.6457L305.089 187.525C309.122 189.85 311.608 194.154 311.61 198.812V284.888C311.607 286.564 310.714 288.112 309.265 288.953C307.816 289.793 306.031 289.798 304.577 288.967L115.348 180.304C113.907 179.477 113.017 177.941 113.017 176.277V84.4294C113.017 82.8741 113.844 81.4365 115.188 80.6567C116.532 79.8768 118.189 79.8726 119.537 80.6457Z" fill="white"/>
<ellipse cx="196.738" cy="238.465" rx="4.03558" ry="4.61719" transform="rotate(-10.9 196.738 238.465)" fill="#AB643C"/>
<path opacity="0.32" d="M169.41 197.427L255.639 249.296L298.235 224.503L222.126 180.15" fill="url(#paint3_linear_19_3)"/>
<path d="M275.97 187.102L182.746 130.193C181.73 129.604 180.474 129.615 179.468 130.22C178.461 130.825 177.862 131.93 177.903 133.104V165.529C177.896 166.722 178.513 167.832 179.53 168.453L272.742 224.157C273.739 224.724 274.962 224.717 275.952 224.138C276.942 223.559 277.549 222.496 277.546 221.348L278.033 191.117C278.106 189.507 277.321 187.979 275.97 187.102Z" fill="#E2AC00"/>
<path d="M253.667 203.789C257.01 208.47 262.89 209.779 266.785 206.726C270.679 203.673 271.128 197.402 267.784 192.733C264.44 188.064 258.56 186.743 254.666 189.796C250.771 192.848 250.323 199.107 253.667 203.789Z" fill="white"/>
<path d="M244.52 181.318L206.497 158.397C205.82 158.08 205.014 158.331 204.635 158.976C204.257 159.621 204.431 160.448 205.037 160.886L243.059 183.806C243.736 184.123 244.543 183.873 244.921 183.228C245.3 182.583 245.126 181.755 244.52 181.318V181.318Z" fill="#F2F2F2"/>
<path d="M242.957 190.629L190.548 159.039C189.885 158.807 189.152 159.084 188.808 159.697C188.464 160.31 188.609 161.081 189.151 161.527L241.496 193.13C242.173 193.448 242.98 193.197 243.358 192.552C243.737 191.907 243.563 191.08 242.957 190.642V190.629Z" fill="#F2F2F2"/>
<path d="M257.369 193.387L164.196 136.49C163.18 135.902 161.924 135.912 160.918 136.517C159.911 137.123 159.312 138.227 159.353 139.402V171.813C159.338 173.009 159.951 174.124 160.968 174.751L254.179 230.454C255.187 231.034 256.429 231.025 257.427 230.429C258.426 229.833 259.025 228.745 258.996 227.581L259.483 197.35C259.526 195.748 258.723 194.242 257.369 193.387V193.387Z" fill="#F47B56"/>
<path d="M235.065 210.074C238.409 214.755 244.289 216.063 248.184 213.011C252.078 209.958 252.526 203.686 249.183 199.018C245.839 194.349 239.959 193.028 236.065 196.08C232.17 199.133 231.722 205.392 235.065 210.074Z" fill="white"/>
<path d="M225.918 187.602L187.87 164.682C187.194 164.365 186.387 164.615 186.008 165.26C185.63 165.905 185.804 166.733 186.41 167.17L224.432 190.091C225.109 190.408 225.916 190.157 226.294 189.512C226.673 188.867 226.499 188.04 225.893 187.602H225.918Z" fill="#F2F2F2"/>
<path d="M224.343 196.978L171.946 165.336C171.27 165.019 170.463 165.27 170.084 165.915C169.706 166.56 169.88 167.387 170.486 167.825L222.895 199.415C223.572 199.732 224.378 199.482 224.757 198.837C225.136 198.192 224.962 197.364 224.355 196.927L224.343 196.978Z" fill="#F2F2F2"/>
<path d="M233.989 197.209L140.791 140.313C139.774 139.724 138.519 139.735 137.512 140.34C136.506 140.945 135.907 142.049 135.948 143.224V175.636C135.94 176.829 136.558 177.939 137.575 178.56L230.787 234.264C231.794 234.844 233.036 234.834 234.035 234.238C235.033 233.643 235.633 232.554 235.603 231.391L236.09 201.16C236.132 199.565 235.334 198.065 233.989 197.209V197.209Z" fill="#68E1FD"/>
<path d="M233.989 197.209L140.791 140.313C139.774 139.724 138.519 139.735 137.512 140.34C136.506 140.945 135.907 142.049 135.948 143.224V175.636C135.94 176.829 136.558 177.939 137.575 178.56L230.787 234.264C231.794 234.844 233.036 234.834 234.035 234.238C235.033 233.643 235.633 232.554 235.603 231.391L236.09 201.16C236.132 199.565 235.334 198.065 233.989 197.209V197.209Z" fill="#68E1FD"/>
<path d="M211.673 213.896C215.016 218.577 220.897 219.886 224.791 216.833C228.686 213.78 229.134 207.508 225.79 202.84C222.447 198.171 216.566 196.85 212.672 199.903C208.777 202.955 208.368 209.214 211.673 213.896Z" fill="white"/>
<path d="M202.526 191.425L164.491 168.504C163.814 168.187 163.007 168.438 162.629 169.083C162.25 169.728 162.424 170.555 163.03 170.993L201.053 193.913C201.729 194.23 202.536 193.979 202.915 193.335C203.293 192.69 203.119 191.862 202.513 191.425H202.526Z" fill="#F2F2F2"/>
<path d="M200.95 200.749L148.541 169.158C147.864 168.841 147.058 169.092 146.679 169.737C146.301 170.382 146.475 171.209 147.081 171.647L199.49 203.237C200.166 203.555 200.973 203.304 201.352 202.659C201.73 202.014 201.556 201.187 200.95 200.749V200.749Z" fill="#F2F2F2"/>
<path d="M111.672 194.028C105.649 199.218 101.094 205.901 98.4636 213.408C93.8261 226.235 105.42 247.192 105.42 247.192L123.458 232.891" fill="#FF8F6F"/>
<path d="M109.724 363.602L104.831 360.896L106.112 353.893C106.112 353.893 113.401 354.585 114.042 357.176" fill="#003B94"/>
<path d="M111.518 363.499C112.62 362.82 113.773 362.217 114.913 361.614C117.744 360.062 121.831 358.459 123.573 355.547C124.304 354.342 124.212 352.809 123.342 351.699C120.78 348.595 115.169 353.7 112.299 350.263C111.736 349.583 111.467 338.796 111.467 338.796L100.552 341.746C100.552 341.746 98.707 363.422 98.912 364.756C99.117 366.09 102.871 367.321 102.871 367.321C103.988 367.084 105.055 366.649 106.022 366.039C107.162 365.205 106.125 355.034 107.585 356.458C109.045 357.881 109.686 363.448 109.686 363.448C110.292 363.54 110.907 363.557 111.518 363.499Z" fill="#F47B56"/>
<path d="M130.568 374.081L125.674 371.413L126.955 364.41C126.955 364.41 134.244 365.103 134.885 367.693" fill="#003B94"/>
<path d="M132.412 373.978C133.514 373.298 134.667 372.696 135.807 372.093C138.638 370.541 142.725 368.938 144.467 366.026C145.198 364.821 145.106 363.288 144.237 362.178C141.674 359.074 136.063 364.179 133.194 360.742C132.63 360.062 132.361 349.275 132.361 349.275L121.446 352.225C121.446 352.225 119.589 373.978 119.794 375.261C119.999 376.543 123.752 377.826 123.752 377.826C124.87 377.588 125.937 377.154 126.904 376.543C128.044 375.71 127.006 365.539 128.467 366.962C129.927 368.386 130.568 373.953 130.568 373.953C131.179 374.037 131.799 374.046 132.412 373.978Z" fill="#F47B56"/>
<path d="M95.0047 303.614L91.7892 346.671C91.7892 346.671 96.9135 353.751 114.093 349.814V349.814L114.259 320.788" fill="#3E2928"/>
<path d="M114.849 312.144C114.477 315.85 114.849 356.74 114.849 356.74C114.849 356.74 119.601 365.641 140.291 356.74L139.996 321.994" fill="#3E2928"/>
<path d="M93.4034 317.838C94.8125 318.813 95.2994 313.798 96.7726 314.658C102.132 317.775 107.821 320.287 113.734 322.148H113.862C114.147 322.01 114.475 321.993 114.773 322.102C115.07 322.21 115.31 322.436 115.438 322.725C119.091 323.816 122.809 324.673 126.571 325.29C131.4 326.06 135.397 322.482 140.355 322.238C140.355 303.23 140.445 249.129 132.361 237.586L108.443 229.531C108.328 231.506 96.8366 244.845 97.1185 261.109C97.4388 279.437 95.0559 296.727 94.646 302.46C94.5819 303.435 93.4546 316.8 93.4034 317.838Z" fill="#3E2928"/>
<path d="M134.565 215.73L132.361 237.534C132.361 237.534 114.516 238.253 106.829 232.943V214.447" fill="#FF8F6F"/>
<path d="M157.252 201.378L155.433 203.866C156.403 201.842 157.259 199.765 157.995 197.645C158.508 196.196 156.189 195.619 155.677 197.068L155.408 197.812C155.63 197.042 155.839 196.269 156.035 195.49C156.195 194.849 155.805 194.2 155.164 194.041C154.524 193.882 153.876 194.272 153.717 194.913C153.214 196.926 152.611 198.912 151.91 200.865C152.302 199.131 152.584 197.375 152.756 195.606C152.91 194.08 150.514 194.144 150.373 195.606C150.174 197.619 149.814 199.614 149.297 201.57C149.297 200.886 149.233 200.202 149.105 199.518C149.069 199.173 148.887 198.86 148.605 198.658C148.541 198.389 148.464 198.133 148.375 197.863C148.187 197.309 147.629 196.97 147.052 197.058C146.474 197.147 146.044 197.638 146.03 198.222L145.876 207.201C145.443 208.132 144.877 208.996 144.198 209.766C145.351 210.564 146.463 211.42 147.529 212.331C148.48 213.136 149.387 213.993 150.245 214.896C151.014 213.939 151.752 212.964 152.461 211.972C152.549 211.897 152.627 211.811 152.692 211.715C154.827 208.552 157.03 205.439 159.302 202.378C160.25 201.326 158.162 200.159 157.252 201.378Z" fill="#FFB5A9"/>
<path d="M123.24 195.85C123.24 195.85 131.669 198.12 135.09 203.545C137.232 207.3 139.119 211.195 140.739 215.204L146.965 205.52C146.965 205.52 154.524 207.842 157.521 211.562C157.521 211.562 148.554 231.185 140.739 232.866C132.925 234.546 124.623 221.348 124.623 221.348C124.623 221.348 122.907 226.863 123.24 220.976" fill="#FF8F6F"/>
<path d="M128.595 216.82C126.144 214.824 124.295 212.187 123.253 209.202C122.24 205.751 123.509 202.724 124.687 199.518C125.963 196.339 126.708 192.972 126.891 189.552C126.993 186.192 126.609 182.831 126.378 179.483C126.345 179.34 126.345 179.191 126.378 179.047C125.251 175.264 122.945 172.057 118.397 171.672C106.624 170.672 105.958 183.729 106.048 189.039C106.137 194.349 106.701 197.94 102.794 200.159C98.8864 202.378 96.068 208.201 99.7959 212.908C103.524 217.615 100.18 215.897 97.695 220.078C95.2097 224.259 95.8502 229.48 100.949 231.365C106.048 233.25 129.748 229.71 131.925 227.517C132.698 226.634 133.098 225.484 133.04 224.311C132.508 221.359 130.93 218.699 128.595 216.82V216.82Z" fill="#007F68"/>
<path fill-rule="evenodd" clip-rule="evenodd" d="M143.506 118.88C143.325 115.384 142.171 112.008 140.176 109.132C138.4 106.259 135.777 104.009 132.668 102.694C131.076 101.983 129.277 101.891 127.621 102.437C126.041 102.997 124.738 104.146 123.983 105.644C123.073 107.429 122.666 109.429 122.804 111.428C122.915 113.807 123.471 116.143 124.444 118.316C125.415 120.591 126.758 122.689 128.415 124.524C129.814 126.155 131.567 127.445 133.54 128.295C134.234 128.572 134.962 128.757 135.705 128.846C136.27 128.922 136.843 128.922 137.408 128.846C137.85 128.785 138.281 128.664 138.69 128.487C138.949 128.385 139.202 128.265 139.445 128.128L139.702 127.948L138.152 125.062L137.639 125.345C137.119 125.585 136.546 125.691 135.974 125.652C135.095 125.662 134.223 125.491 133.412 125.152C131.08 124.082 129.16 122.281 127.941 120.022C126.411 117.734 125.525 115.075 125.379 112.326C125.133 110.14 125.891 107.96 127.442 106.4C128.911 105.101 131.023 104.831 132.771 105.721C135.124 106.7 137.11 108.396 138.446 110.569C139.933 112.705 140.79 115.216 140.919 117.816C141.013 120.441 140.44 121.51 139.202 121.022C138.761 120.831 138.392 120.503 138.152 120.086C137.868 119.654 137.708 119.153 137.69 118.637L137.434 111.428L134.872 110.428V111.569L134.641 111.159C134.378 110.783 134.068 110.443 133.719 110.146C133.309 109.774 132.836 109.478 132.323 109.273C131.286 108.763 130.041 108.958 129.21 109.761C128.265 110.805 127.829 112.213 128.018 113.609C128.072 115.333 128.585 117.011 129.504 118.47C130.267 119.812 131.445 120.87 132.861 121.484C133.454 121.753 134.116 121.834 134.757 121.715C135.14 121.658 135.502 121.504 135.807 121.266C135.927 121.134 136.031 120.987 136.115 120.83L136.422 121.433C136.718 121.951 137.089 122.422 137.524 122.831C138.008 123.333 138.593 123.727 139.24 123.985C140.301 124.55 141.609 124.323 142.418 123.433C143.341 122.107 143.73 120.481 143.506 118.88ZM135.051 116.353C135.136 117.031 134.946 117.714 134.526 118.252C134.133 118.642 133.533 118.735 133.04 118.483C132.354 118.185 131.782 117.672 131.413 117.02C130.964 116.304 130.712 115.481 130.683 114.635C130.593 113.962 130.799 113.284 131.246 112.775C131.678 112.385 132.306 112.303 132.822 112.57C133.48 112.856 134.025 113.352 134.372 113.981C134.797 114.701 135.031 115.517 135.051 116.353Z" fill="#F47B56"/>
<path fill-rule="evenodd" clip-rule="evenodd" d="M294.764 257.761C294.586 254.264 293.432 250.887 291.433 248.013C289.721 245.108 287.152 242.805 284.079 241.421C282.482 240.715 280.68 240.623 279.019 241.164C277.44 241.732 276.138 242.884 275.381 244.383C274.471 246.164 274.063 248.16 274.202 250.155C274.312 252.534 274.869 254.87 275.842 257.043C276.813 259.322 278.155 261.424 279.813 263.263C281.214 264.89 282.966 266.176 284.938 267.021C285.628 267.303 286.351 267.492 287.09 267.586C287.66 267.661 288.237 267.661 288.807 267.586C289.246 267.517 289.676 267.397 290.088 267.227C290.348 267.124 290.6 267.004 290.844 266.868L291.1 266.688L289.55 263.802L289.037 264.084C288.515 264.32 287.944 264.426 287.372 264.392C286.492 264.392 285.622 264.217 284.81 263.879C282.482 262.861 280.542 261.121 279.275 258.915C277.743 256.629 276.857 253.97 276.713 251.22C276.441 249.029 277.182 246.833 278.725 245.256C280.198 243.964 282.308 243.7 284.054 244.589C286.4 245.568 288.38 247.259 289.716 249.424C291.202 251.565 292.059 254.08 292.189 256.684C292.266 259.313 291.74 260.378 290.459 259.89C290.018 259.699 289.65 259.371 289.409 258.954C289.129 258.52 288.97 258.02 288.948 257.505L288.691 250.296L286.129 249.309V250.45L285.886 250.04C285.622 249.661 285.312 249.316 284.963 249.014C284.554 248.641 284.081 248.346 283.567 248.141C282.534 247.633 281.294 247.828 280.467 248.629C279.515 249.669 279.078 251.08 279.275 252.477C279.329 254.207 279.847 255.89 280.774 257.351C281.535 258.698 282.713 259.761 284.131 260.378C284.72 260.647 285.379 260.723 286.014 260.596C286.398 260.542 286.76 260.387 287.064 260.147C287.182 260.013 287.285 259.867 287.372 259.711L287.679 260.313C287.978 260.83 288.349 261.301 288.781 261.711C289.268 262.211 289.852 262.604 290.498 262.866C291.559 263.426 292.864 263.2 293.675 262.314C294.598 260.988 294.987 259.362 294.764 257.761ZM286.321 255.234C286.402 255.914 286.208 256.597 285.783 257.133C285.387 257.519 284.788 257.607 284.297 257.351C283.61 257.048 283.039 256.531 282.67 255.876C282.221 255.163 281.969 254.345 281.94 253.503C281.851 252.828 282.061 252.148 282.517 251.643C282.951 251.257 283.578 251.181 284.092 251.451C284.748 251.736 285.289 252.233 285.63 252.861C286.061 253.58 286.299 254.397 286.321 255.234Z" fill="#F47B56"/>
<g style="mix-blend-mode:multiply" opacity="0.25">
<path d="M36.139 302.704L-7.22557 278.001L-50.5774 302.755C-50.5774 302.755 -26.4546 317.838 -4.86838 330.511C8.83919 320.814 21.0223 309.72 36.139 302.704Z" fill="url(#paint4_linear_19_3)"/>
</g>
</g>
<defs>
<linearGradient id="paint0_linear_19_3" x1="162.715" y1="255.543" x2="151.685" y2="288.24" gradientUnits="userSpaceOnUse">
<stop stop-color="#78B46A"/>
<stop offset="0.03" stop-color="#7F3500"/>
<stop offset="1" stop-color="white"/>
</linearGradient>
<linearGradient id="paint1_linear_19_3" x1="90.5364" y1="322.477" x2="71.9807" y2="380.838" gradientUnits="userSpaceOnUse">
<stop stop-color="#78B46A"/>
<stop offset="0.03" stop-color="#7F3500"/>
<stop offset="1" stop-color="white"/>
</linearGradient>
<linearGradient id="paint2_linear_19_3" x1="44.7001" y1="200.002" x2="27.5362" y2="239.625" gradientUnits="userSpaceOnUse">
<stop stop-color="#78B46A"/>
<stop offset="0.03" stop-color="#7F3500"/>
<stop offset="1" stop-color="white"/>
</linearGradient>
<linearGradient id="paint3_linear_19_3" x1="285.656" y1="235.452" x2="278.951" y2="218.459" gradientUnits="userSpaceOnUse">
<stop stop-color="white" stop-opacity="0.01"/>
<stop offset="0.99" stop-color="#DC841E"/>
</linearGradient>
<linearGradient id="paint4_linear_19_3" x1="-20.445" y1="258.349" x2="-39.9671" y2="316.801" gradientUnits="userSpaceOnUse">
<stop stop-color="#78B46A"/>
<stop offset="0.03" stop-color="#7F3500"/>
<stop offset="1" stop-color="white"/>
</linearGradient>
</defs>
</svg>
